<svg width="146" height="30" viewBox="0 0 146 30" fill="none" xmlns="http://www.w3.org/2000/svg">
<path d="M22.8571 7.88588V28.1145C22.8571 28.5002 22.6 28.7573 22.2143 28.7573H17.4143C17.0286 28.7573 16.8143 28.5002 16.7714 28.1145L16.6429 26.5287C15.1429 28.2002 13.1286 29.3573 10.4714 29.3573C4.51429 29.3573 0.100006 24.343 0.100006 18.0859C0.100006 11.8287 4.51429 6.81445 10.4714 6.81445C13 6.81445 15.1 8.01445 16.6429 9.7716L16.7714 7.9716C16.8143 7.58588 17.0286 7.32874 17.4143 7.32874H22.2143C22.6 7.24302 22.8571 7.50017 22.8571 7.88588ZM16.1286 18.0002C16.1286 15.1287 14.0714 12.7287 11.2857 12.7287C8.45715 12.7287 6.40001 15.0002 6.40001 18.0002C6.40001 21.043 8.45715 23.3145 11.2857 23.3145C14.0714 23.3145 16.1286 20.8716 16.1286 18.0002Z" fill="#322F2E"/>
<path d="M42.0143 8.82876L40.5571 12.6002C40.3857 13.1145 40 13.2002 39.4857 13.0716C39.0571 12.943 38.5 12.7288 37.6857 12.7288C34.9429 12.7288 33.3143 14.743 33.3143 17.4002V28.1145C33.3143 28.5002 33.0571 28.7573 32.6714 28.7573H27.4C27.0143 28.7573 26.7571 28.5002 26.7571 28.1145V7.8859C26.7571 7.50019 27.0143 7.24305 27.4 7.24305H32.4571C32.8429 7.24305 33.0571 7.50019 33.1 7.8859L33.2714 10.3716C34.3857 8.27162 36.1857 6.72876 38.8 6.72876C40.0857 6.72876 41.1571 7.24305 41.8 7.84305C42.1429 8.1859 42.1429 8.52876 42.0143 8.82876Z" fill="#322F2E"/>
<path d="M57.7857 21.5573C58.1286 21.2573 58.4286 21.2573 58.7714 21.5573L61.9429 24.6002C62.2 24.8573 62.2429 25.2002 61.9857 25.543C59.9714 27.8573 56.9714 29.3573 53.5429 29.3573C47.3286 29.3573 42.5286 24.3859 42.5286 18.0859C42.5286 11.7859 47.3714 6.81445 53.5429 6.81445C56.8857 6.81445 59.8429 8.31445 61.8571 10.6287C62.1143 10.9287 62.0714 11.2716 61.8143 11.5716L58.6 14.5716C58.3 14.8716 58 14.8287 57.6572 14.5287C56.4143 13.4573 55.1714 12.8573 53.7143 12.8573C50.8429 12.8573 48.8286 15.0859 48.8286 18.043C48.8286 21.0002 50.8429 23.2287 53.7143 23.2287C55.2572 23.2287 56.5429 22.6287 57.7857 21.5573Z" fill="#322F2E"/>
<path d="M86.5429 7.88588V28.1145C86.5429 28.5002 86.2857 28.7573 85.9 28.7573H81.1C80.7143 28.7573 80.5 28.5002 80.4572 28.1145L80.3286 26.5287C78.8286 28.2002 76.8143 29.3573 74.1572 29.3573C68.2 29.3573 63.7857 24.343 63.7857 18.0859C63.7857 11.8287 68.2 6.81445 74.1572 6.81445C76.6857 6.81445 78.7857 8.01445 80.3286 9.7716L80.4572 7.9716C80.5 7.58588 80.7143 7.32874 81.1 7.32874H85.9C86.2857 7.24302 86.5429 7.50017 86.5429 7.88588ZM79.8143 18.0002C79.8143 15.1287 77.7572 12.7287 74.9714 12.7287C72.1429 12.7287 70.0857 15.0002 70.0857 18.0002C70.0857 21.043 72.1429 23.3145 74.9714 23.3145C77.7572 23.3145 79.8143 20.8716 79.8143 18.0002Z" fill="#322F2E"/>
<path d="M105.7 8.82876L104.243 12.6002C104.071 13.1145 103.686 13.2002 103.129 13.0716C102.7 12.943 102.143 12.7288 101.329 12.7288C98.5857 12.7288 96.9572 14.743 96.9572 17.4002V28.1145C96.9572 28.5002 96.7 28.7573 96.3143 28.7573H91.0429C90.6572 28.7573 90.4 28.5002 90.4 28.1145V7.8859C90.4 7.50019 90.6572 7.24305 91.0429 7.24305H96.1C96.4857 7.24305 96.7 7.50019 96.7429 7.8859L96.9143 10.3716C98.0286 8.27162 99.8286 6.72876 102.443 6.72876C103.729 6.72876 104.8 7.24305 105.443 7.84305C105.829 8.1859 105.829 8.52876 105.7 8.82876Z" fill="#322F2E"/>
<path d="M121.3 7.88579V11.8715C121.3 12.2572 121.043 12.5144 120.657 12.5144H117.571V28.0715C117.571 28.4572 117.314 28.7144 116.929 28.7144H111.657C111.271 28.7144 111.014 28.4572 111.014 28.0715V12.5572H107.929C107.543 12.5572 107.286 12.3001 107.286 11.9144V7.88579C107.286 7.50008 107.543 7.24293 107.929 7.24293H111.014V1.32865C111.014 0.942934 111.271 0.685791 111.657 0.685791H116.929C117.314 0.685791 117.571 0.942934 117.571 1.32865V7.24293H120.657C121.043 7.24293 121.3 7.50008 121.3 7.88579Z" fill="#322F2E"/>
<path d="M145.9 7.88588V28.1145C145.9 28.5002 145.643 28.7573 145.257 28.7573H140.457C140.071 28.7573 139.857 28.5002 139.814 28.1145L139.686 26.5287C138.186 28.2002 136.171 29.3573 133.514 29.3573C127.557 29.3573 123.143 24.343 123.143 18.0859C123.143 11.8287 127.557 6.81445 133.514 6.81445C136.043 6.81445 138.143 8.01445 139.686 9.7716L139.814 7.9716C139.857 7.58588 140.071 7.32874 140.457 7.32874H145.257C145.643 7.24302 145.9 7.50017 145.9 7.88588ZM139.171 18.0002C139.171 15.1287 137.114 12.7287 134.329 12.7287C131.5 12.7287 129.443 15.0002 129.443 18.0002C129.443 21.043 131.5 23.3145 134.329 23.3145C137.114 23.3145 139.171 20.8716 139.171 18.0002Z" fill="#322F2E"/>
</svg>
